<svg xmlns="http://www.w3.org/2000/svg" viewBox="0 0 710 300"><defs><style>.cls-1{fill:#fff;}</style></defs><g id="Layer_2" data-name="Layer 2"><g id="Layer_1-2" data-name="Layer 1"><path id="_8" data-name="8" class="cls-1" d="M706,218.43l-35.71-73.81c-.53-2.21-2.11-4.25-3.42-6L603.57,6.65C600.84.8,594.65,0,588.19,0H116.53c-6.46,0-12.34.8-15.07,6.65L1.31,219.93C-.14,223,0,224.93,0,228.17v54.38C0,288.68,4.58,300,10.7,300H694c6.13,0,16-11.32,16-17.45V228.12C710,224.89,707.49,221.54,706,218.43ZM662.82,210H490V170H642ZM200,210V170H460v40Zm190-70V90H606.62l19.8,50ZM98.11,90H360v50H78.31ZM62.76,170H170v40H41.9ZM591.07,60H290V30H577.6ZM127.12,30H260V60H113.65Z"/></g></g></svg>